<svg xmlns="http://www.w3.org/2000/svg" xmlns:xlink="http://www.w3.org/1999/xlink" width="40" height="40" viewBox="0 0 40 40">
  <defs>
    <clipPath id="clip-path">
      <rect id="Rectangle_2170" data-name="Rectangle 2170" width="22" height="22" transform="translate(172 593)" fill="#fff" stroke="#707070" stroke-width="1"/>
    </clipPath>
  </defs>
  <g id="Instagram" transform="translate(-1366 -4326)">
    <g id="Ellipse_1246" data-name="Ellipse 1246" transform="translate(1366 4326)" fill="#fff" stroke="#fff" stroke-width="1">
      <circle cx="20" cy="20" r="20" stroke="none"/>
      <circle cx="20" cy="20" r="19.5" fill="none"/>
    </g>
    <g id="instagram-2" data-name="instagram" transform="translate(1203 3742)" clip-path="url(#clip-path)">
      <g id="Group_3316" data-name="Group 3316" transform="translate(-134.556 -245.445)">
        <g id="Group_3317" data-name="Group 3317" transform="translate(0.313 -0.688)">
          <path id="Path_1183" data-name="Path 1183" d="M1.11,0H18.867a1.11,1.11,0,0,1,1.11,1.11V18.867a1.11,1.11,0,0,1-1.11,1.11H1.11A1.11,1.11,0,0,1,0,18.867V1.11A1.11,1.11,0,0,1,1.11,0Z" transform="translate(307.243 840.133)" fill="#376eef"/>
          <g id="Group_3315" data-name="Group 3315" transform="translate(309.463 842.348)">
            <path id="Path_1176" data-name="Path 1176" d="M21.59,9.834A1.192,1.192,0,1,1,20.4,8.642,1.192,1.192,0,0,1,21.59,9.834Z" transform="translate(-8.082 -6.26)" fill="#fff"/>
            <path id="Path_1177" data-name="Path 1177" d="M14.537,18.506a3.973,3.973,0,1,0-3.973-3.973,3.973,3.973,0,0,0,3.973,3.973Zm0-1.589a2.384,2.384,0,1,0-2.384-2.384,2.384,2.384,0,0,0,2.384,2.384Z" transform="translate(-6.591 -6.59)" fill="#fff" fill-rule="evenodd"/>
            <path id="Path_1178" data-name="Path 1178" d="M5.762,13.389c0-2.67,0-4.005.519-5.025A4.772,4.772,0,0,1,8.365,6.281c1.02-.519,2.355-.519,5.025-.519h.636c2.67,0,4.005,0,5.025.519a4.772,4.772,0,0,1,2.082,2.084c.519,1.02.519,2.355.519,5.025v.636c0,2.67,0,4.005-.519,5.025a4.772,4.772,0,0,1-2.083,2.083c-1.02.519-2.355.519-5.025.519h-.636c-2.67,0-4.005,0-5.025-.519a4.772,4.772,0,0,1-2.083-2.083c-.519-1.02-.519-2.355-.519-5.025Zm7.628-6.038h.636c1.362,0,2.286,0,3,.06a3.43,3.43,0,0,1,1.3.286,3.178,3.178,0,0,1,1.394,1.389,3.429,3.429,0,0,1,.286,1.3c.059.715.06,1.64.06,3v.636c0,1.362,0,2.286-.06,3a3.429,3.429,0,0,1-.286,1.3,3.178,3.178,0,0,1-1.388,1.388,3.429,3.429,0,0,1-1.3.286c-.715.059-1.64.06-3,.06h-.636c-1.362,0-2.286,0-3-.06a3.429,3.429,0,0,1-1.3-.286,3.179,3.179,0,0,1-1.388-1.388,3.43,3.43,0,0,1-.3-1.292c-.059-.715-.06-1.64-.06-3v-.636c0-1.362,0-2.286.06-3A3.43,3.43,0,0,1,7.7,9.087,3.178,3.178,0,0,1,9.087,7.7a3.43,3.43,0,0,1,1.3-.286C11.1,7.352,12.029,7.351,13.389,7.351Z" transform="translate(-5.762 -5.762)" fill="#fff" fill-rule="evenodd"/>
          </g>
        </g>
      </g>
    </g>
  </g>
</svg>
