<svg xmlns="http://www.w3.org/2000/svg" xmlns:xlink="http://www.w3.org/1999/xlink" width="40" height="40" viewBox="0 0 40 40">
  <defs>
    <clipPath id="clip-path">
      <rect id="Rectangle_2161" data-name="Rectangle 2161" width="22" height="22" transform="translate(208 593)" fill="#fff" stroke="#707070" stroke-width="1"/>
    </clipPath>
  </defs>
  <g id="Youtube" transform="translate(-1318 -4372)">
    <g id="Ellipse_1249" data-name="Ellipse 1249" transform="translate(1318 4372)" fill="#fff" stroke="#fff" stroke-width="1">
      <circle cx="20" cy="20" r="20" stroke="none"/>
      <circle cx="20" cy="20" r="19.5" fill="none"/>
    </g>
    <g id="youtube-2" data-name="youtube" transform="translate(1119 3788)" clip-path="url(#clip-path)">
      <g id="Layer_2" data-name="Layer 2" transform="translate(208 593)">
        <g id="invisible_box" data-name="invisible box">
          <rect id="Rectangle_2171" data-name="Rectangle 2171" width="22" height="22" fill="none"/>
          <rect id="Rectangle_2172" data-name="Rectangle 2172" width="22" height="22" fill="none"/>
        </g>
        <g id="icons_Q2" data-name="icons Q2">
          <path id="Path_1184" data-name="Path 1184" d="M20.671,5.867a2.521,2.521,0,0,0-1.788-1.788C17.325,3.667,11,3.667,11,3.667s-6.325,0-7.883.412A2.521,2.521,0,0,0,1.329,5.867a26.751,26.751,0,0,0-.412,4.858,26.751,26.751,0,0,0,.413,4.858,2.521,2.521,0,0,0,1.788,1.788c1.558.412,7.883.412,7.883.412s6.325,0,7.883-.413a2.521,2.521,0,0,0,1.788-1.787,26.751,26.751,0,0,0,.413-4.858A26.751,26.751,0,0,0,20.671,5.867ZM8.983,13.75V7.7l5.225,3.025Z" fill="#376eef"/>
        </g>
      </g>
    </g>
  </g>
</svg>
