<svg xmlns="http://www.w3.org/2000/svg" width="64" height="64" viewBox="0 0 64 64">
  <g id="Call_icon" data-name="Call icon" transform="translate(-182 -1228)">
    <circle id="Oval" cx="32" cy="32" r="32" transform="translate(182 1228)" fill="#376eef"/>
    <path id="Path" d="M2.828.765a2.617,2.617,0,0,1,3.915.245L9.435,4.469A2.617,2.617,0,0,1,9.908,6.71L9.087,10a1.017,1.017,0,0,0,.267.965l3.685,3.686a1.017,1.017,0,0,0,.966.267l3.283-.821a2.617,2.617,0,0,1,2.241.473l3.459,2.691a2.617,2.617,0,0,1,.244,3.917l-1.551,1.551a4.165,4.165,0,0,1-4.315,1.053,27.95,27.95,0,0,1-10.515-6.63A27.953,27.953,0,0,1,.223,6.632,4.17,4.17,0,0,1,1.277,2.316Z" transform="translate(202 1248)" fill="#fff"/>
  </g>
</svg>
