<svg xmlns="http://www.w3.org/2000/svg" width="48" height="48" viewBox="0 0 48 48">
  <g id="Close_Btn" transform="translate(-11909 19364)">
    <g id="Rectangle" transform="translate(11909 -19364)" fill="none" stroke="rgba(255,255,255,0.29)" stroke-width="1">
      <rect width="48" height="48" rx="6" stroke="none"/>
      <rect x="0.5" y="0.5" width="47" height="47" rx="5.5" fill="none"/>
    </g>
    <g id="Close_Btn-2" data-name="Close_Btn" transform="translate(11926.999 -19345.959)">
      <g id="invisible_box" data-name="invisible box">
        <rect id="Rectangle_2405" data-name="Rectangle 2405" width="12.002" height="11.919" fill="none"/>
      </g>
      <g id="icons_Q2" data-name="icons Q2" transform="translate(-1.999 -2.041)">
        <path id="Path_25293" data-name="Path 25293" d="M19.6,17.959l6.058-5.983a1.194,1.194,0,0,0,.114-1.538,1.088,1.088,0,0,0-1.714-.114L18,16.364l-6.058-6.04a1.088,1.088,0,0,0-1.714.114,1.194,1.194,0,0,0,.114,1.538L16.4,17.959l-6.058,5.983a1.194,1.194,0,0,0-.114,1.538,1.088,1.088,0,0,0,1.714.114L18,19.555l6.058,6.04a1.088,1.088,0,0,0,1.714-.114,1.194,1.194,0,0,0-.114-1.538Z" transform="translate(-10.001 -9.959)" fill="#fff"/>
      </g>
    </g>
  </g>
</svg>
