<svg xmlns="http://www.w3.org/2000/svg" xmlns:xlink="http://www.w3.org/1999/xlink" width="30" height="30" viewBox="0 0 30 30">
  <defs>
    <clipPath id="clip-path">
      <rect id="Rectangle_1468" data-name="Rectangle 1468" width="30" height="30" transform="translate(-0.302)" fill="#fff" stroke="#707070" stroke-width="1"/>
    </clipPath>
  </defs>
  <g id="Upload" transform="translate(0.302)" clip-path="url(#clip-path)">
    <g id="Layer_2" data-name="Layer 2">
      <g id="invisible_box" data-name="invisible box">
        <rect id="Rectangle_2182" data-name="Rectangle 2182" width="30" height="30" transform="translate(-0.302)" fill="none"/>
      </g>
      <g id="icons_Q2" data-name="icons Q2" transform="translate(1.25 4.375)">
        <path id="Path_25290" data-name="Path 25290" d="M9.625,17.625a1.187,1.187,0,0,0,1.875.125l2.25-2.25v7a1.25,1.25,0,0,0,2.5,0v-7l2.25,2.25a1.188,1.188,0,0,0,1.875-.125,1.313,1.313,0,0,0-.125-1.688l-4.375-4.312a1.187,1.187,0,0,0-1.75,0L9.75,15.937A1.313,1.313,0,0,0,9.625,17.625Z" transform="translate(-1.25 -4.375)"/>
        <path id="Path_25291" data-name="Path 25291" d="M25.313,13.625a5.688,5.688,0,0,0-2.125-4.063A6.125,6.125,0,0,0,18.5,8.125a7.687,7.687,0,0,0-6.375-3.75,7.25,7.25,0,0,0-5.5,2.5,7.75,7.75,0,0,0-2,5.25,7.375,7.375,0,0,0-3.25,5.125,7.187,7.187,0,0,0,1.937,6.375,7.75,7.75,0,0,0,5.438,2H10a1.25,1.25,0,0,0,1.25-1.25h0A1.25,1.25,0,0,0,10,23.125H8.75a4.937,4.937,0,0,1-3.687-1.312,4.75,4.75,0,0,1-1.25-4.187,4.563,4.563,0,0,1,.938-2.188,5.063,5.063,0,0,1,1.688-1.562,1.125,1.125,0,0,0,.687-1.187h0A5.688,5.688,0,0,1,8.5,8.563a4.812,4.812,0,0,1,3.625-1.687,4.563,4.563,0,0,1,2.813,1A5.5,5.5,0,0,1,16.688,10a1.25,1.25,0,0,0,1.125.75h.313a4.063,4.063,0,0,1,3.563.813,3.75,3.75,0,0,1,1.125,2.75v.25a1,1,0,0,0,.75,1.063h.125a3.875,3.875,0,0,1,2.563,3.75c0,.375-.25,3.75-4.687,3.75H20a1.25,1.25,0,0,0-1.25,1.25h0A1.25,1.25,0,0,0,20,25.625h1.563c4.813,0,7.063-3.187,7.188-6.187a6.188,6.188,0,0,0-3.437-5.812Z" transform="translate(-1.25 -4.375)"/>
      </g>
    </g>
  </g>
</svg>
