<svg xmlns="http://www.w3.org/2000/svg" width="80" height="80" viewBox="0 0 80 80">
  <g id="Design_icon" data-name="Design icon" transform="translate(-183 -4122.072)">
    <path id="Oval" d="M40,0A40,40,0,1,1,0,40,40,40,0,0,1,40,0Z" transform="translate(183 4122.072)" fill="#376eef"/>
    <path id="Combined_Shape" data-name="Combined Shape" d="M25.03,31.263l-.81-3.244H7.78l-.81,3.244a1,1,0,0,1-1.939-.484l1.69-6.763H1a1,1,0,0,1,0-2H31a1,1,0,0,1,0,2H25.28l1.69,6.763a1,1,0,0,1-1.94.484ZM8.28,26.018H23.72l-.5-2H8.78Zm-6.28-6V5A3,3,0,0,1,5,2h9.38L15.106.553a1,1,0,0,1,1.788,0L17.618,2H27a3,3,0,0,1,3,3V20.014Z" transform="translate(207 4146.072)" fill="#fff"/>
  </g>
</svg>
