<svg xmlns="http://www.w3.org/2000/svg" width="64" height="64" viewBox="0 0 64 64">
  <g id="Email_Icon" data-name="Email Icon" transform="translate(-572 -1228)">
    <circle id="Oval" cx="32" cy="32" r="32" transform="translate(572 1228)" fill="#376eef"/>
    <path id="Shape" d="M3,18A3,3,0,0,1,.286,16.285l9.855-6.041h0L12,11.379l1.858-1.135,9.855,6.04A3,3,0,0,1,21,18ZM15.3,9.366v0L24,4.046V14.7ZM0,4.046,8.7,9.365,0,14.7ZM.075,2.333A3,3,0,0,1,3,0H21a3,3,0,0,1,2.925,2.333L12,9.621Z" transform="translate(592 1251)" fill="#fff"/>
  </g>
</svg>
